<svg xmlns="http://www.w3.org/2000/svg" width="41.25" viewBox="0 0 41.25 36" height="36" version="1.0"><g fill="#FFF"><g><g><path d="M 1.613281 -13.433594 C 1.613281 -5.375 6.878906 0.539062 13.570312 0.539062 C 17.410156 0.539062 20.609375 -1.398438 22.652344 -4.78125 L 22.652344 -8.652344 C 22.652344 -12.949219 18.808594 -13.433594 15.128906 -13.433594 C 11.742188 -13.433594 8.464844 -13.003906 8.464844 -14.804688 C 8.464844 -16.066406 9.996094 -16.632812 11.660156 -16.632812 C 14.320312 -16.632812 17.949219 -14.050781 21.171875 -14.050781 C 22.839844 -14.050781 24.316406 -14.992188 23.886719 -16.6875 C 23.886719 -16.6875 23.804688 -15.878906 21.925781 -15.878906 C 18.460938 -15.878906 16.253906 -18.324219 12.253906 -18.324219 C 10.640625 -18.324219 8.167969 -17.222656 8.167969 -14.9375 C 8.167969 -13.355469 9.699219 -13.113281 11.660156 -13.113281 C 15.261719 -13.113281 20.339844 -13.890625 20.339844 -8.652344 L 20.339844 -4.863281 C 20.339844 -3.894531 18.296875 0.214844 13.570312 0.214844 C 8.382812 0.214844 4.03125 -5.589844 4.03125 -13.433594 C 4.03125 -21.28125 8.007812 -27.085938 13.570312 -27.085938 C 19.320312 -27.085938 20.957031 -22.570312 20.957031 -22.570312 L 21.226562 -22.570312 L 21.226562 -26.171875 C 19.15625 -26.867188 16.875 -27.40625 13.570312 -27.40625 C 6.878906 -27.40625 1.613281 -21.496094 1.613281 -13.433594 Z M 1.613281 -13.433594" transform="translate(-.612 30.894)"/></g></g></g><g fill="#FFF"><g><g><path d="M -1.613281 13.433594 C -1.613281 5.375 -6.878906 -0.539062 -13.570312 -0.539062 C -17.410156 -0.539062 -20.609375 1.398438 -22.652344 4.78125 L -22.652344 8.652344 C -22.652344 12.949219 -18.808594 13.433594 -15.128906 13.433594 C -11.742188 13.433594 -8.464844 13.003906 -8.464844 14.804688 C -8.464844 16.066406 -9.996094 16.632812 -11.660156 16.632812 C -14.320312 16.632812 -17.949219 14.050781 -21.171875 14.050781 C -22.839844 14.050781 -24.316406 14.992188 -23.886719 16.6875 C -23.886719 16.6875 -23.804688 15.878906 -21.925781 15.878906 C -18.460938 15.878906 -16.253906 18.324219 -12.253906 18.324219 C -10.640625 18.324219 -8.167969 17.222656 -8.167969 14.9375 C -8.167969 13.355469 -9.699219 13.113281 -11.660156 13.113281 C -15.261719 13.113281 -20.339844 13.890625 -20.339844 8.652344 L -20.339844 4.863281 C -20.339844 3.894531 -18.296875 -0.214844 -13.570312 -0.214844 C -8.382812 -0.214844 -4.03125 5.589844 -4.03125 13.433594 C -4.03125 21.28125 -8.007812 27.085938 -13.570312 27.085938 C -19.320312 27.085938 -20.957031 22.570312 -20.957031 22.570312 L -21.226562 22.570312 L -21.226562 26.171875 C -19.15625 26.867188 -16.875 27.40625 -13.570312 27.40625 C -6.878906 27.40625 -1.613281 21.496094 -1.613281 13.433594 Z M -1.613281 13.433594" transform="translate(41.131 4.132)"/></g></g></g></svg>